<svg width="11" height="12" viewBox="0 0 11 12" fill="none" xmlns="http://www.w3.org/2000/svg">
<path d="M10.83 4.805L5.99998 0L1.16998 4.805C1.11299 4.8484 1.066 4.90353 1.03217 4.96667C0.998342 5.0298 0.978476 5.09947 0.973915 5.17096C0.969354 5.24244 0.980205 5.31407 1.00573 5.38099C1.03126 5.44792 1.07087 5.50858 1.12188 5.55886C1.17289 5.60915 1.23411 5.64789 1.30139 5.67246C1.36867 5.69703 1.44045 5.70685 1.51186 5.70127C1.58327 5.69569 1.65265 5.67483 1.7153 5.64011C1.77795 5.60538 1.8324 5.5576 1.87498 5.5L5.49998 1.905V11.47C5.49998 11.6026 5.55266 11.7298 5.64643 11.8236C5.74019 11.9173 5.86737 11.97 5.99998 11.97C6.13259 11.97 6.25977 11.9173 6.35353 11.8236C6.4473 11.7298 6.49998 11.6026 6.49998 11.47V1.905L10.125 5.5C10.2191 5.59349 10.3466 5.64575 10.4792 5.64528C10.6119 5.64481 10.739 5.59165 10.8325 5.4975C10.926 5.40335 10.9782 5.27591 10.9778 5.14323C10.9773 5.01055 10.9241 4.88349 10.83 4.79V4.805Z" fill="#F9F9F9"/>
</svg>
