<svg width="10" height="12" viewBox="0 0 10 12" fill="none" xmlns="http://www.w3.org/2000/svg">
<path d="M9.85708 4.805L5.02708 0L0.19708 4.805C0.140093 4.8484 0.0930952 4.90353 0.0592684 4.96667C0.0254416 5.0298 0.00557547 5.09947 0.00101464 5.17096C-0.00354619 5.24244 0.00730509 5.31407 0.0328335 5.38099C0.0583619 5.44792 0.0979715 5.50858 0.148981 5.55886C0.199991 5.60915 0.261209 5.64789 0.328492 5.67246C0.395774 5.69703 0.467551 5.70685 0.538961 5.70127C0.610372 5.69569 0.67975 5.67483 0.742398 5.64011C0.805046 5.60538 0.859502 5.5576 0.90208 5.5L4.52708 1.905V11.47C4.52708 11.6026 4.57976 11.7298 4.67353 11.8236C4.76729 11.9173 4.89447 11.97 5.02708 11.97C5.15969 11.97 5.28687 11.9173 5.38063 11.8236C5.4744 11.7298 5.52708 11.6026 5.52708 11.47V1.905L9.15208 5.5C9.24623 5.59349 9.37367 5.64575 9.50635 5.64528C9.63903 5.64481 9.76609 5.59165 9.85958 5.4975C9.95307 5.40335 10.0053 5.27591 10.0049 5.14323C10.0044 5.01055 9.95123 4.88349 9.85708 4.79V4.805Z" fill="#2D2D2D"/>
</svg>
