<svg width="24" height="24" viewBox="0 0 24 24" fill="none" xmlns="http://www.w3.org/2000/svg">
<path d="M13.4702 8.53003C13.3965 8.46137 13.3374 8.37857 13.2964 8.28657C13.2554 8.19457 13.2334 8.09526 13.2316 7.99455C13.2298 7.89385 13.2483 7.79382 13.286 7.70043C13.3238 7.60705 13.3799 7.52221 13.4511 7.45099C13.5224 7.37978 13.6072 7.32363 13.7006 7.28591C13.794 7.24819 13.894 7.22966 13.9947 7.23144C14.0954 7.23322 14.1947 7.25526 14.2867 7.29625C14.3787 7.33724 14.4615 7.39635 14.5302 7.47003L18.5302 11.47C18.6706 11.6107 18.7495 11.8013 18.7495 12C18.7495 12.1988 18.6706 12.3894 18.5302 12.53L14.5302 16.53C14.4615 16.6037 14.3787 16.6628 14.2867 16.7038C14.1947 16.7448 14.0954 16.7668 13.9947 16.7686C13.894 16.7704 13.794 16.7519 13.7006 16.7142C13.6072 16.6764 13.5224 16.6203 13.4511 16.5491C13.3799 16.4779 13.3238 16.393 13.286 16.2996C13.2483 16.2062 13.2298 16.1062 13.2316 16.0055C13.2334 15.9048 13.2554 15.8055 13.2964 15.7135C13.3374 15.6215 13.3965 15.5387 13.4702 15.47L16.1902 12.75L6.50017 12.75C6.30126 12.75 6.11049 12.671 5.96984 12.5304C5.82919 12.3897 5.75017 12.1989 5.75017 12C5.75017 11.8011 5.82919 11.6104 5.96984 11.4697C6.11049 11.3291 6.30126 11.25 6.50017 11.25L16.1902 11.25L13.4702 8.53003Z" fill="#878787"/>
</svg>
