<svg width="16" height="16" viewBox="0 0 16 16" fill="none" xmlns="http://www.w3.org/2000/svg">
<path d="M11.7867 5.21298C11.8534 5.14844 11.9066 5.07123 11.9432 4.98585C11.9798 4.90047 11.9991 4.80863 12 4.7157C12.0008 4.62276 11.9832 4.53058 11.9482 4.44454C11.9131 4.3585 11.8613 4.28033 11.7959 4.21458C11.7304 4.14883 11.6525 4.09682 11.5668 4.06158C11.481 4.02635 11.3892 4.00859 11.2965 4.00936C11.2039 4.01012 11.1123 4.02939 11.0271 4.06603C10.942 4.10267 10.865 4.15596 10.8006 4.22278L8.00395 7.02726L5.20825 4.22278C5.14437 4.15401 5.06734 4.09885 4.98175 4.06059C4.89616 4.02234 4.80376 4.00177 4.71007 4.00011C4.61638 3.99845 4.52332 4.01574 4.43644 4.05094C4.34955 4.08615 4.27063 4.13855 4.20437 4.20501C4.13811 4.27148 4.08588 4.35065 4.05078 4.43781C4.01569 4.52496 3.99846 4.61832 4.00011 4.7123C4.00176 4.80628 4.02227 4.89897 4.06041 4.98483C4.09854 5.07069 4.15353 5.14797 4.22208 5.21205L7.01592 8.01746L4.22022 10.8219C4.09697 10.9546 4.02987 11.1301 4.03306 11.3115C4.03625 11.4928 4.10948 11.6658 4.23732 11.7941C4.36516 11.9223 4.53763 11.9958 4.7184 11.999C4.89917 12.0022 5.07412 11.9348 5.20639 11.8112L8.00395 9.00673L10.7996 11.8121C10.9319 11.9358 11.1069 12.0031 11.2876 11.9999C11.4684 11.9967 11.6409 11.9232 11.7687 11.795C11.8966 11.6667 11.9698 11.4937 11.973 11.3124C11.9762 11.1311 11.9091 10.9556 11.7858 10.8229L8.99198 8.01746L11.7867 5.21298Z" fill="#555454"/>
</svg>
