<svg width="94" height="121" viewBox="0 0 94 121" fill="none" xmlns="http://www.w3.org/2000/svg">
<path d="M87.3389 0.292893C86.9484 -0.0976311 86.3153 -0.0976311 85.9247 0.292893L79.5608 6.65685C79.1702 7.04738 79.1702 7.68054 79.5608 8.07107C79.9513 8.46159 80.5845 8.46159 80.975 8.07107L86.6318 2.41421L92.2887 8.07107C92.6792 8.46159 93.3124 8.46159 93.7029 8.07107C94.0934 7.68054 94.0934 7.04738 93.7029 6.65685L87.3389 0.292893ZM0.131836 120L0.264 120.991C1.25316 120.859 2.23152 120.717 3.19917 120.564L3.04339 119.577L2.88761 118.589C1.93582 118.739 0.973211 118.879 -0.000327781 119.009L0.131836 120ZM8.7476 118.533L8.95227 119.512C10.896 119.105 12.7934 118.655 14.6455 118.164L14.389 117.197L14.1325 116.231C12.3152 116.713 10.4524 117.155 8.54294 117.554L8.7476 118.533ZM19.9504 115.553L20.2614 116.503C22.1505 115.885 23.9886 115.221 25.777 114.514L25.4092 113.584L25.0415 112.654C23.2909 113.346 21.4907 113.996 19.6394 114.602L19.9504 115.553ZM30.7421 111.278L31.1681 112.183C32.9658 111.337 34.7084 110.444 36.3974 109.507L35.9126 108.633L35.4278 107.758C33.7774 108.673 32.0741 109.546 30.3161 110.374L30.7421 111.278ZM40.8952 105.646L41.4383 106.485C43.1035 105.408 44.7109 104.286 46.2622 103.123L45.6623 102.323L45.0623 101.523C43.5476 102.658 41.9782 103.754 40.352 104.806L40.8952 105.646ZM50.1867 98.677L50.8408 99.4334C52.3355 98.1409 53.7718 96.8076 55.1518 95.4375L54.4472 94.7279L53.7426 94.0182C52.3947 95.3565 50.9921 96.6586 49.5326 97.9206L50.1867 98.677ZM58.4281 90.4984L59.1789 91.159C60.4794 89.6809 61.7229 88.1683 62.9117 86.6253L62.1195 86.015L61.3273 85.4047C60.1645 86.9141 58.9486 88.3931 57.6774 89.8378L58.4281 90.4984ZM65.5171 81.3055L66.3458 81.8652C67.4446 80.2382 68.4892 78.5842 69.4821 76.9077L68.6217 76.3981L67.7613 75.8885C66.7879 77.5321 65.7644 79.1526 64.6884 80.7458L65.5171 81.3055ZM71.4381 71.3201L72.3258 71.7807C73.229 70.04 74.0818 68.2806 74.8866 66.507L73.976 66.0938L73.0653 65.6806C72.2745 67.4233 71.4371 69.1511 70.5505 70.8595L71.4381 71.3201ZM76.2441 60.7445L77.174 61.1122C77.8951 59.2891 78.5695 57.456 79.1999 55.6177L78.254 55.2933L77.3081 54.9689C76.6872 56.7792 76.0235 58.5833 75.3142 60.3767L76.2441 60.7445ZM80.0179 49.7588L80.9769 50.042C81.5324 48.1609 82.0451 46.2791 82.5177 44.4017L81.5479 44.1576L80.5782 43.9135C80.1119 45.7657 79.6064 47.6214 79.0588 49.4756L80.0179 49.7588ZM82.8575 38.4976L83.8358 38.7046C84.2435 36.7778 84.6115 34.861 84.9429 32.9597L83.9578 32.788L82.9726 32.6163C82.6452 34.4949 82.2817 36.3881 81.8792 38.2906L82.8575 38.4976ZM84.8571 27.0478L85.8475 27.1859C86.1202 25.2309 86.356 23.299 86.5588 21.3965L85.5644 21.2905L84.5701 21.1845C84.3695 23.0664 84.1362 24.9769 83.8667 26.9097L84.8571 27.0478ZM86.0903 15.4946L87.0875 15.5695C87.2368 13.5814 87.3515 11.6355 87.4364 9.73979L86.4374 9.6951L85.4384 9.65041C85.3544 11.5267 85.2408 13.4525 85.0931 15.4197L86.0903 15.4946ZM86.6103 3.88926L87.6102 3.90414C87.6249 2.91768 87.6318 1.94917 87.6318 1H86.6318H85.6318C85.6318 1.93941 85.625 2.89799 85.6104 3.87439L86.6103 3.88926Z" fill="#FAFAFA"/>
</svg>
