<svg width="30" height="24" viewBox="0 0 30 24" fill="none" xmlns="http://www.w3.org/2000/svg">
<path d="M9.29079 12.7125L14.2908 17.7125C14.3859 17.8036 14.498 17.875 14.6208 17.9225C14.8643 18.0226 15.1373 18.0226 15.3808 17.9225C15.5035 17.875 15.6157 17.8036 15.7108 17.7125L20.7108 12.7125C20.804 12.6193 20.878 12.5086 20.9285 12.3868C20.9789 12.265 21.0049 12.1344 21.0049 12.0025C21.0049 11.7362 20.8991 11.4808 20.7108 11.2925C20.5225 11.1042 20.2671 10.9985 20.0008 10.9985C19.7345 10.9985 19.4791 11.1042 19.2908 11.2925L16.0008 14.5925L16.0008 7.00254C16.0008 6.73733 15.8954 6.48297 15.7079 6.29544C15.5204 6.1079 15.266 6.00254 15.0008 6.00254C14.7356 6.00254 14.4812 6.1079 14.2937 6.29544C14.1061 6.48297 14.0008 6.73733 14.0008 7.00254L14.0008 14.5925L10.7108 11.2925C10.6178 11.1988 10.5072 11.1244 10.3854 11.0737C10.2635 11.0229 10.1328 10.9967 10.0008 10.9967C9.86878 10.9967 9.73807 11.0229 9.61622 11.0737C9.49436 11.1244 9.38376 11.1988 9.29079 11.2925C9.19706 11.3855 9.12267 11.4961 9.0719 11.618C9.02113 11.7398 8.99499 11.8705 8.99499 12.0025C8.99499 12.1346 9.02113 12.2653 9.0719 12.3871C9.12267 12.509 9.19706 12.6196 9.29079 12.7125Z" fill="#AEED09"/>
</svg>
