<svg width="24" height="24" viewBox="0 0 24 24" fill="none" xmlns="http://www.w3.org/2000/svg">
<path d="M11.9998 4.0752C12.0867 4.0752 12.1818 4.09759 12.2898 4.15918C12.3616 4.20021 12.4195 4.26153 12.4636 4.36719L12.4646 4.36914L14.3396 8.81934L14.4568 9.09668L14.7566 9.12305L19.5847 9.5459C19.7495 9.57018 19.8312 9.61672 19.8708 9.65137C19.9345 9.70704 19.9892 9.78419 20.03 9.89648C20.0642 9.99053 20.0711 10.0822 20.0496 10.1826C20.0336 10.2567 19.9921 10.3376 19.8923 10.4268L16.2234 13.5967L15.9949 13.7939L16.0632 14.0889L17.1628 18.8135C17.1911 18.9365 17.1761 19.0145 17.1482 19.0732C17.0977 19.1794 17.0305 19.2633 16.9441 19.3301C16.8747 19.3837 16.7923 19.4172 16.6824 19.4268C16.6018 19.4337 16.5183 19.4176 16.4197 19.3545L16.1501 19.7754L16.4197 19.3535L16.408 19.3467L12.2585 16.8467L11.9998 16.6914L11.7419 16.8467L7.59253 19.3467H7.59155L7.58179 19.3535C7.48254 19.4167 7.39807 19.4336 7.31616 19.4268C7.20735 19.4176 7.12632 19.3837 7.05737 19.3301C6.97001 19.2621 6.90178 19.1789 6.85132 19.0732C6.82386 19.0157 6.80795 18.9364 6.83667 18.8115L7.93726 14.0889L8.00562 13.7939L7.7771 13.5967L4.10229 10.4219C4.00756 10.3345 3.96765 10.2548 3.9519 10.1816C3.93017 10.0804 3.93682 9.98877 3.97046 9.89551C4.01038 9.78502 4.06494 9.70802 4.12964 9.65137C4.17001 9.61606 4.25128 9.56952 4.41382 9.5459L9.2439 9.12305L9.5437 9.09668L9.66089 8.81934L11.5359 4.36914L11.5369 4.36719C11.581 4.26151 11.6388 4.20019 11.7107 4.15918C11.8185 4.0977 11.913 4.07525 11.9998 4.0752Z" fill="#FFC801" stroke="#FFC801"/>
</svg>
