<svg width="24" height="24" viewBox="0 0 24 24" fill="none" xmlns="http://www.w3.org/2000/svg">
<path d="M11.9998 4.075C12.0867 4.075 12.1818 4.09739 12.2898 4.15898C12.3616 4.20001 12.4195 4.26133 12.4636 4.36699L12.4646 4.36894L14.3396 8.81914L14.4568 9.09648L14.7566 9.12285L19.5847 9.5457C19.7495 9.56998 19.8312 9.61652 19.8708 9.65117C19.9345 9.70684 19.9892 9.78399 20.03 9.89629C20.0642 9.99033 20.0711 10.082 20.0496 10.1824C20.0336 10.2565 19.9921 10.3374 19.8923 10.4266L16.2234 13.5965L15.9949 13.7937L16.0632 14.0887L17.1628 18.8133C17.1911 18.9363 17.1761 19.0143 17.1482 19.073C17.0977 19.1792 17.0305 19.2631 16.9441 19.3299C16.8747 19.3835 16.7923 19.417 16.6824 19.4266C16.6018 19.4335 16.5183 19.4174 16.4197 19.3543L16.1501 19.7752L16.4197 19.3533L16.408 19.3465L12.2585 16.8465L11.9998 16.6912L11.7419 16.8465L7.59253 19.3465H7.59155L7.58179 19.3533C7.48254 19.4165 7.39807 19.4334 7.31616 19.4266C7.20735 19.4174 7.12632 19.3835 7.05737 19.3299C6.97001 19.2619 6.90178 19.1787 6.85132 19.073C6.82386 19.0155 6.80795 18.9362 6.83667 18.8113L7.93726 14.0887L8.00562 13.7937L7.7771 13.5965L4.10229 10.4217C4.00756 10.3343 3.96765 10.2546 3.9519 10.1814C3.93017 10.0802 3.93682 9.98857 3.97046 9.89531C4.01038 9.78482 4.06494 9.70782 4.12964 9.65117C4.17001 9.61586 4.25128 9.56932 4.41382 9.5457L9.2439 9.12285L9.5437 9.09648L9.66089 8.81914L11.5359 4.36894L11.5369 4.36699C11.581 4.26131 11.6388 4.19999 11.7107 4.15898C11.8185 4.0975 11.913 4.07505 11.9998 4.075Z" fill="#E5F306" stroke="#E5F306"/>
</svg>
