<svg width="24" height="24" viewBox="0 0 24 24" fill="none" xmlns="http://www.w3.org/2000/svg">
<path d="M18.523 4.226C14.1878 3.74126 9.81216 3.74126 5.477 4.226C5.23207 4.25324 4.99897 4.3459 4.80219 4.49426C4.6054 4.64262 4.45218 4.84121 4.35859 5.0692C4.265 5.29718 4.2345 5.54615 4.27029 5.78999C4.30608 6.03382 4.40685 6.26353 4.562 6.455L8.331 11.114C9.41067 12.4487 9.99979 14.1133 10 15.83V18.972C9.99992 19.0898 10.0276 19.2059 10.0807 19.3111C10.1339 19.4162 10.2111 19.5073 10.306 19.577L13.077 21.609C13.1635 21.6724 13.2658 21.7106 13.3726 21.7194C13.4795 21.7281 13.5867 21.7071 13.6823 21.6586C13.7779 21.6101 13.8582 21.5361 13.9143 21.4447C13.9704 21.3533 14.0001 21.2482 14 21.141V15.83C14.0003 14.1129 14.5898 12.4478 15.67 11.113L19.438 6.453C19.5929 6.26152 19.6934 6.0319 19.7291 5.78821C19.7647 5.54452 19.7342 5.29573 19.6406 5.06791C19.547 4.84009 19.3939 4.64164 19.1973 4.49333C19.0007 4.34503 18.7678 4.25335 18.523 4.226Z" fill="white"/>
</svg>
