<svg width="24" height="24" viewBox="0 0 24 24" fill="none" xmlns="http://www.w3.org/2000/svg">
<path d="M18.523 4.22586C14.1878 3.74112 9.81216 3.74112 5.477 4.22586C5.23207 4.2531 4.99897 4.34576 4.80219 4.49412C4.6054 4.64248 4.45218 4.84107 4.35859 5.06906C4.265 5.29704 4.2345 5.54602 4.27029 5.78985C4.30608 6.03368 4.40685 6.26339 4.562 6.45486L8.331 11.1139C9.41067 12.4485 9.99979 14.1132 10 15.8299V18.9719C9.99992 19.0897 10.0276 19.2058 10.0807 19.3109C10.1339 19.416 10.2111 19.5071 10.306 19.5769L13.077 21.6089C13.1635 21.6723 13.2658 21.7105 13.3726 21.7192C13.4795 21.728 13.5867 21.7069 13.6823 21.6585C13.7779 21.61 13.8582 21.5359 13.9143 21.4446C13.9704 21.3532 14.0001 21.2481 14 21.1409V15.8299C14.0003 14.1127 14.5898 12.4477 15.67 11.1129L19.438 6.45286C19.5929 6.26138 19.6934 6.03177 19.7291 5.78808C19.7647 5.54439 19.7342 5.2956 19.6406 5.06778C19.547 4.83996 19.3939 4.6415 19.1973 4.4932C19.0007 4.3449 18.7678 4.25321 18.523 4.22586Z" fill="#424242"/>
</svg>
