<svg width="24" height="24" viewBox="0 0 24 24" fill="none" xmlns="http://www.w3.org/2000/svg">
<path d="M6 19H9.692V13.923C9.692 13.6943 9.76967 13.5027 9.925 13.348C10.0797 13.1927 10.2713 13.115 10.5 13.115H13.5C13.7287 13.115 13.9207 13.1927 14.076 13.348C14.2307 13.5027 14.308 13.6943 14.308 13.923V19H18V10.308C18 10.2053 17.9777 10.112 17.933 10.028C17.8883 9.94399 17.8273 9.87066 17.75 9.80799L12.366 5.74999C12.2633 5.66066 12.1413 5.61599 12 5.61599C11.8587 5.61599 11.737 5.66066 11.635 5.74999L6.25 9.80799C6.17333 9.87199 6.11233 9.94532 6.067 10.028C6.02167 10.1107 5.99933 10.204 6 10.308V19ZM5 19V10.308C5 10.052 5.05733 9.80966 5.172 9.58099C5.28667 9.35232 5.44467 9.16399 5.646 9.01599L11.031 4.93799C11.313 4.72266 11.635 4.61499 11.997 4.61499C12.359 4.61499 12.683 4.72266 12.969 4.93799L18.354 9.01499C18.556 9.16299 18.714 9.35166 18.828 9.58099C18.9427 9.80966 19 10.052 19 10.308V19C19 19.268 18.9003 19.5017 18.701 19.701C18.5017 19.9003 18.268 20 18 20H14.116C13.8867 20 13.6947 19.9227 13.54 19.768C13.3853 19.6127 13.308 19.4207 13.308 19.192V14.116H10.692V19.192C10.692 19.4213 10.6147 19.6133 10.46 19.768C10.3053 19.9227 10.1137 20 9.885 20H6C5.732 20 5.49833 19.9003 5.299 19.701C5.09967 19.5017 5 19.268 5 19Z" fill="#AEED09"/>
<path d="M5.5 18.885H9.192V13.808C9.192 13.5793 9.26967 13.3877 9.425 13.233C9.57967 13.0777 9.77133 13 10 13H13C13.2287 13 13.4207 13.0777 13.576 13.233C13.7307 13.3877 13.808 13.5793 13.808 13.808V18.885H17.5V10.193C17.5 10.0903 17.4777 9.997 17.433 9.913C17.3883 9.829 17.3273 9.75567 17.25 9.693L11.866 5.635C11.7633 5.54567 11.6413 5.501 11.5 5.501C11.3587 5.501 11.237 5.54567 11.135 5.635L5.75 9.693C5.67333 9.757 5.61233 9.83033 5.567 9.913C5.52167 9.99567 5.49933 10.089 5.5 10.193V18.885ZM4.5 18.885V10.193C4.5 9.937 4.55733 9.69467 4.672 9.466C4.78667 9.23733 4.94467 9.049 5.146 8.901L10.531 4.823C10.813 4.60767 11.135 4.5 11.497 4.5C11.859 4.5 12.183 4.60767 12.469 4.823L17.854 8.9C18.056 9.048 18.214 9.23667 18.328 9.466C18.4427 9.69467 18.5 9.937 18.5 10.193V18.885C18.5 19.153 18.4003 19.3867 18.201 19.586C18.0017 19.7853 17.768 19.885 17.5 19.885H13.616C13.3867 19.885 13.1947 19.8077 13.04 19.653C12.8853 19.4977 12.808 19.3057 12.808 19.077V14.001H10.192V19.077C10.192 19.3063 10.1147 19.4983 9.96 19.653C9.80533 19.8077 9.61367 19.885 9.385 19.885H5.5C5.232 19.885 4.99833 19.7853 4.799 19.586C4.59967 19.3867 4.5 19.153 4.5 18.885Z" fill="#AEED09"/>
<path d="M5.5 9.13636V19.5H9.5V13.5H13.5V19.5H17.5V9.13636L11.5 4.5L5.5 9.13636Z" fill="#AEED09"/>
</svg>
