<svg width="24" height="24" viewBox="0 0 24 24" fill="none" xmlns="http://www.w3.org/2000/svg">
<path d="M6 19H9.692V13.923C9.692 13.6943 9.76967 13.5027 9.925 13.348C10.0797 13.1927 10.2713 13.115 10.5 13.115H13.5C13.7287 13.115 13.9207 13.1927 14.076 13.348C14.2307 13.5027 14.308 13.6943 14.308 13.923V19H18V10.308C18 10.2053 17.9777 10.112 17.933 10.028C17.8883 9.94401 17.8273 9.87067 17.75 9.80801L12.366 5.75001C12.2633 5.66067 12.1413 5.61601 12 5.61601C11.8587 5.61601 11.737 5.66067 11.635 5.75001L6.25 9.80801C6.17333 9.87201 6.11233 9.94534 6.067 10.028C6.02167 10.1107 5.99933 10.204 6 10.308V19ZM5 19V10.308C5 10.052 5.05733 9.80967 5.172 9.58101C5.28667 9.35234 5.44467 9.16401 5.646 9.01601L11.031 4.93801C11.313 4.72267 11.635 4.61501 11.997 4.61501C12.359 4.61501 12.683 4.72267 12.969 4.93801L18.354 9.01501C18.556 9.16301 18.714 9.35167 18.828 9.58101C18.9427 9.80967 19 10.052 19 10.308V19C19 19.268 18.9003 19.5017 18.701 19.701C18.5017 19.9003 18.268 20 18 20H14.116C13.8867 20 13.6947 19.9227 13.54 19.768C13.3853 19.6127 13.308 19.4207 13.308 19.192V14.116H10.692V19.192C10.692 19.4213 10.6147 19.6133 10.46 19.768C10.3053 19.9227 10.1137 20 9.885 20H6C5.732 20 5.49833 19.9003 5.299 19.701C5.09967 19.5017 5 19.268 5 19Z" fill="#555454"/>
</svg>
