<svg width="75" height="61" viewBox="0 0 75 61" fill="none" xmlns="http://www.w3.org/2000/svg">
<g clip-path="url(#clip0_1569_7232)">
<path d="M63.7762 57.3465C64.5164 57.3993 65.0883 57.4196 65.6521 57.4847C66.1023 57.5355 66.5646 57.5842 66.9885 57.7285C68.2276 58.1532 68.475 59.4355 67.386 60.165C66.7979 60.5593 65.9826 60.7808 65.2668 60.7889C55.4028 60.8946 45.5368 61.0531 35.6728 60.9819C27.5549 60.925 19.4391 60.6101 11.3252 60.3439C9.87525 60.2951 8.40904 60.0187 6.99758 59.6651C5.13998 59.1998 3.98202 57.9074 3.67782 56.0114C3.38985 54.215 3.23776 52.3942 3.07552 50.5775C2.56853 44.8998 2.08791 39.22 1.59309 33.5403C1.24225 29.5025 0.879248 25.4647 0.538552 21.4248C0.291142 18.4843 1.15505 15.8609 2.96398 13.5707C3.39999 13.018 4.04083 12.5628 4.67963 12.2559C5.18865 12.0121 5.32046 11.754 5.31235 11.2439C5.30019 10.5124 5.27382 9.76047 5.41578 9.04923C5.94102 6.41561 8.11296 4.67206 10.8629 4.70254C18.3501 4.78383 25.8352 4.90169 33.3224 5.00533C41.6695 5.12116 50.0145 5.22886 58.3616 5.35079C61.951 5.40362 64.1331 7.64098 64.1473 11.2541C64.1554 13.5097 64.1635 15.7654 64.1392 18.021C64.1331 18.5351 64.2325 18.7709 64.8105 18.8522C67.2095 19.1895 68.8522 21.3415 68.6108 23.8044C67.8321 31.7723 67.0372 39.7382 66.2544 47.7041C66.0779 49.4944 65.8995 51.2847 65.7535 53.077C65.6216 54.6844 65.2282 56.1658 63.7762 57.3465ZM35.3707 56.4422C43.8962 56.4422 52.4217 56.4422 60.9492 56.4422C62.5736 56.4422 63.7823 55.4241 63.9344 53.9122C64.344 49.8277 64.7435 45.7431 65.1431 41.6586C65.7291 35.6577 66.3132 29.6549 66.8911 23.654C66.9175 23.3797 66.9256 23.0952 66.8769 22.827C66.6316 21.4776 65.4736 20.612 63.8594 20.6018C61.1784 20.5855 58.4954 20.5977 55.8145 20.5957C52.5251 20.5957 49.2358 20.5794 45.9485 20.6018C43.8982 20.616 42.2049 19.8946 40.8685 18.3299C40.2276 17.58 39.528 16.8749 38.9176 16.1007C37.5081 14.3083 35.6972 13.5808 33.4238 13.5971C26.036 13.652 18.6482 13.6174 11.2624 13.6174C9.6177 13.6174 7.97303 13.5849 6.33039 13.6377C4.53565 13.6946 3.42433 15.0501 3.5967 16.8363C3.78936 18.8278 3.95362 20.8233 4.12803 22.8188C4.55187 27.6146 4.97368 32.4104 5.39955 37.2062C5.88221 42.632 6.38311 48.0577 6.84751 53.4855C7.01786 55.481 8.00953 56.4483 10.0213 56.4483C18.4717 56.4483 26.9222 56.4483 35.3707 56.4483V56.4422ZM7.05436 12.008H7.971C16.5695 12.008 25.168 12.0222 33.7666 11.9999C36.2244 11.9938 38.2402 12.8737 39.8524 14.7188C40.5196 15.4809 41.199 16.2328 41.8601 16.9989C42.9491 18.2608 44.2977 18.8887 45.985 18.8806C51.1948 18.8562 56.4046 18.8725 61.6144 18.8725C61.878 18.8725 62.1417 18.8725 62.4317 18.8725C62.4317 15.9828 62.4844 13.2212 62.3931 10.4636C62.3708 9.79096 61.9815 9.05533 61.5678 8.48837C60.789 7.42151 59.5966 7.18579 58.3271 7.17156C49.0472 7.05979 39.7673 6.9338 30.4874 6.80578C23.9127 6.71434 17.3381 6.60866 10.7655 6.52332C8.81463 6.4969 7.35045 7.66333 7.07464 9.52881C6.95905 10.3152 7.05436 11.1322 7.05436 12.008Z" fill="#303030"/>
<path d="M72.1536 4.25111C72.0624 4.37507 71.9285 4.70224 71.6872 4.86074C69.9594 5.99872 68.2072 7.10216 66.4632 8.21779C66.0191 8.50229 65.6297 8.41288 65.3397 8.01052C65.0376 7.5919 65.1349 7.14077 65.5364 6.8766C67.3474 5.68171 69.1726 4.50309 71.016 3.35901C71.5148 3.05013 72.1253 3.46874 72.1536 4.24907V4.25111Z" fill="#303030"/>
<path d="M73.1737 9.86183C73.3299 9.86183 73.5915 9.78055 73.7213 9.87809C74.0316 10.1118 74.4493 10.4044 74.496 10.7234C74.5304 10.9571 74.0721 11.4814 73.7943 11.5099C71.7887 11.7253 69.7729 11.8614 67.7571 11.9935C67.2562 12.026 66.8465 11.7842 66.8222 11.2213C66.7958 10.6503 67.1142 10.3414 67.6922 10.2967C69.5031 10.1565 71.3161 10.0102 73.1737 9.86183Z" fill="#303030"/>
<path d="M65.3722 0.000156284C66.08 -0.022197 66.3679 0.540699 66.082 1.08937C65.3499 2.4895 64.6381 3.90182 63.8391 5.26536C63.693 5.51328 63.1171 5.72259 62.8596 5.62708C62.604 5.53157 62.2714 4.91381 62.3688 4.72076C63.1009 3.23731 63.9121 1.79045 64.7456 0.35984C64.8713 0.142404 65.2444 0.0692482 65.3722 0.0021884V0.000156284Z" fill="#303030"/>
<path d="M45.6159 48.3807C45.2448 48.1145 44.9406 47.9458 44.6993 47.7142C39.53 42.7294 31.6088 42.3027 25.9813 46.7286C25.3871 47.196 24.8537 47.7447 24.3183 48.2811C23.8661 48.7363 23.4179 48.8339 22.9393 48.3584C22.4749 47.895 22.6372 47.4683 23.0225 47.0314C28.7981 40.4473 40.0269 40.2157 46.0479 46.5843C46.2811 46.8322 46.4169 47.3078 46.3662 47.6451C46.3297 47.8991 45.9241 48.0983 45.6179 48.3807H45.6159Z" fill="#303030"/>
<path d="M18.0134 31.8373C16.9264 30.7562 15.9145 29.7665 14.9248 28.7566C14.361 28.1815 14.4158 27.393 15.0668 27.2244C15.3973 27.139 15.9205 27.3036 16.1821 27.5454C17.2205 28.5046 18.1898 29.541 19.2322 30.5956C20.4125 29.4028 21.5278 28.2323 22.7061 27.1268C22.9433 26.9053 23.4422 26.824 23.7748 26.8952C23.9898 26.9399 24.2514 27.3768 24.2554 27.643C24.2615 27.9214 24.0344 28.2526 23.8214 28.4741C22.9129 29.4251 21.9719 30.3457 21.0452 31.2784C20.8687 31.4552 20.7024 31.6422 20.4855 31.8718C21.3453 32.7151 22.1808 33.5239 23.0042 34.3469C23.57 34.9119 23.6491 35.4808 23.1928 35.8527C22.631 36.312 22.1605 36.0234 21.7367 35.5926C20.9215 34.7655 20.1103 33.9344 19.218 33.0261C18.1371 34.1356 17.1231 35.1923 16.0909 36.2287C15.6995 36.6209 15.2108 36.6879 14.8072 36.2876C14.3752 35.8609 14.4584 35.3752 14.868 34.9444C15.008 34.7981 15.1519 34.6558 15.2959 34.5136C16.1781 33.6438 17.0602 32.7741 18.0134 31.8352V31.8373Z" fill="#303030"/>
<path d="M46.6927 30.3311C45.6442 29.2927 44.6789 28.3254 43.7015 27.3703C43.2553 26.9355 43.0079 26.4681 43.4581 25.9113C43.8231 25.4601 44.3991 25.5394 44.9628 26.1064C45.9281 27.0736 46.8813 28.0531 47.9257 29.1159C48.7531 28.2726 49.5318 27.4577 50.3349 26.6693C50.8175 26.1958 51.3793 26.1815 51.7261 26.6103C52.1235 27.1021 51.9714 27.5553 51.5638 27.9576C50.777 28.7379 49.9841 29.5142 49.1384 30.3474C50.1767 31.3655 51.1562 32.3185 52.1256 33.2818C52.7116 33.865 52.7867 34.3832 52.375 34.7936C51.9654 35.2041 51.4482 35.1229 50.8642 34.5376C49.8989 33.5703 48.9417 32.5969 47.9399 31.5809C46.9725 32.5522 46.0458 33.4809 45.123 34.4116C44.7235 34.814 44.2875 35.005 43.7805 34.6209C43.3161 34.2694 43.3324 33.6902 43.8394 33.1741C44.76 32.2352 45.701 31.3147 46.6947 30.3271L46.6927 30.3311Z" fill="#303030"/>
</g>
<defs>
<clipPath id="clip0_1569_7232">
<rect width="74" height="61" fill="white" transform="translate(0.5)"/>
</clipPath>
</defs>
</svg>
