<svg width="24" height="24" viewBox="0 0 24 24" fill="none" xmlns="http://www.w3.org/2000/svg">
<path d="M12.0027 4.57617C12.0041 4.57659 12.0063 4.57787 12.0095 4.5791L13.8787 9.01367L14.1121 9.56836L14.7126 9.62109L19.5164 10.041C19.5306 10.0432 19.542 10.0467 19.5515 10.0488C19.5526 10.0513 19.5542 10.0537 19.5554 10.0566L15.8962 13.2188L15.4392 13.6133L15.5759 14.2021L16.6707 18.9023C16.667 18.907 16.6618 18.91 16.658 18.9141L12.5164 16.4189L11.9998 16.1074L11.4841 16.4189L7.34155 18.9131C7.33768 18.909 7.33247 18.906 7.32886 18.9014L8.42358 14.2021L8.56128 13.6133L8.10425 13.2188L4.44312 10.0566C4.44428 10.0537 4.44596 10.0512 4.44702 10.0488C4.45573 10.0469 4.46629 10.044 4.47925 10.042L9.28784 9.62109L9.88745 9.56836L10.1218 9.01367L11.99 4.5791C11.9938 4.57764 11.9963 4.57659 11.9978 4.57617L11.9998 4.5752L12.0027 4.57617Z" stroke="#FFC801" stroke-width="2"/>
</svg>
