<svg width="24" height="24" viewBox="0 0 24 24" fill="none" xmlns="http://www.w3.org/2000/svg">
<path d="M11.9996 4.075C12.0865 4.075 12.1817 4.09739 12.2897 4.15898C12.3615 4.20001 12.4194 4.26133 12.4635 4.36699L12.4645 4.36894L14.3395 8.81914L14.4567 9.09648L14.7565 9.12285L19.5846 9.5457C19.7494 9.56998 19.8311 9.61652 19.8707 9.65117C19.9344 9.70684 19.9891 9.78399 20.0299 9.89629C20.064 9.99033 20.071 10.082 20.0494 10.1824C20.0335 10.2565 19.992 10.3374 19.8922 10.4266L16.2233 13.5965L15.9948 13.7937L16.0631 14.0887L17.1627 18.8133C17.191 18.9363 17.176 19.0143 17.1481 19.073C17.0976 19.1792 17.0304 19.2631 16.944 19.3299C16.8746 19.3835 16.7922 19.417 16.6823 19.4266C16.6016 19.4335 16.5182 19.4174 16.4196 19.3543L16.15 19.7752L16.4196 19.3533L16.4078 19.3465L12.2584 16.8465L11.9996 16.6912L11.7418 16.8465L7.59241 19.3465H7.59143L7.58167 19.3533C7.48242 19.4165 7.39795 19.4334 7.31604 19.4266C7.20722 19.4174 7.1262 19.3835 7.05725 19.3299C6.96989 19.2619 6.90166 19.1787 6.8512 19.073C6.82374 19.0155 6.80782 18.9362 6.83655 18.8113L7.93713 14.0887L8.00549 13.7937L7.77698 13.5965L4.10217 10.4217C4.00743 10.3343 3.96753 10.2546 3.95178 10.1814C3.93005 10.0802 3.9367 9.98857 3.97034 9.89531C4.01026 9.78482 4.06482 9.70782 4.12952 9.65117C4.16989 9.61586 4.25115 9.56932 4.4137 9.5457L9.24377 9.12285L9.54358 9.09648L9.66077 8.81914L11.5358 4.36894L11.5367 4.36699C11.5808 4.26131 11.6387 4.19999 11.7106 4.15898C11.8184 4.0975 11.9128 4.07505 11.9996 4.075Z" stroke="#E5F306"/>
</svg>
