<svg width="30" height="24" viewBox="0 0 30 24" fill="none" xmlns="http://www.w3.org/2000/svg">
<path d="M7 19C6.45 19 5.97933 18.8043 5.588 18.413C5.19667 18.0217 5.00067 17.5507 5 17V7C5 6.45 5.196 5.97933 5.588 5.588C5.98 5.19667 6.45067 5.00067 7 5H23C23.55 5 24.021 5.196 24.413 5.588C24.805 5.98 25.0007 6.45067 25 7V17C25 17.55 24.8043 18.021 24.413 18.413C24.0217 18.805 23.5507 19.0007 23 19H7ZM7 17H23V7H7V17ZM20.5 14.5H18.75C18.5333 14.5 18.3543 14.571 18.213 14.713C18.0717 14.855 18.0007 15.034 18 15.25C17.9993 15.466 18.0703 15.6453 18.213 15.788C18.3557 15.9307 18.5347 16.0013 18.75 16H21C21.2833 16 21.521 15.904 21.713 15.712C21.905 15.52 22.0007 15.2827 22 15V12.75C22 12.5333 21.929 12.3543 21.787 12.213C21.645 12.0717 21.466 12.0007 21.25 12C21.034 11.9993 20.855 12.0703 20.713 12.213C20.571 12.3557 20.5 12.5347 20.5 12.75V14.5ZM15 15C15.8333 15 16.5417 14.7083 17.125 14.125C17.7083 13.5417 18 12.8333 18 12C18 11.1667 17.7083 10.4583 17.125 9.875C16.5417 9.29167 15.8333 9 15 9C14.1667 9 13.4583 9.29167 12.875 9.875C12.2917 10.4583 12 11.1667 12 12C12 12.8333 12.2917 13.5417 12.875 14.125C13.4583 14.7083 14.1667 15 15 15ZM9.5 9.5H11.25C11.4667 9.5 11.646 9.429 11.788 9.287C11.93 9.145 12.0007 8.966 12 8.75C11.9993 8.534 11.9283 8.355 11.787 8.213C11.6457 8.071 11.4667 8 11.25 8H9C8.71667 8 8.47933 8.096 8.288 8.288C8.09667 8.48 8.00067 8.71733 8 9V11.25C8 11.4667 8.071 11.646 8.213 11.788C8.355 11.93 8.534 12.0007 8.75 12C8.966 11.9993 9.14533 11.9283 9.288 11.787C9.43067 11.6457 9.50133 11.4667 9.5 11.25V9.5Z" fill="#878787"/>
</svg>
