<svg width="24" height="24" viewBox="0 0 24 24" fill="none" xmlns="http://www.w3.org/2000/svg">
<path d="M13.4697 8.53C13.396 8.46134 13.3369 8.37854 13.2959 8.28654C13.2549 8.19454 13.2329 8.09523 13.2311 7.99452C13.2293 7.89382 13.2478 7.79379 13.2856 7.7004C13.3233 7.60702 13.3794 7.52218 13.4506 7.45096C13.5219 7.37974 13.6067 7.3236 13.7001 7.28588C13.7935 7.24816 13.8935 7.22963 13.9942 7.23141C14.0949 7.23319 14.1942 7.25523 14.2862 7.29622C14.3782 7.33721 14.461 7.39631 14.5297 7.47L18.5297 11.47C18.6701 11.6106 18.749 11.8013 18.749 12C18.749 12.1988 18.6701 12.3894 18.5297 12.53L14.5297 16.53C14.461 16.6037 14.3782 16.6628 14.2862 16.7038C14.1942 16.7448 14.0949 16.7668 13.9942 16.7686C13.8935 16.7704 13.7935 16.7518 13.7001 16.7141C13.6067 16.6764 13.5219 16.6203 13.4506 16.549C13.3794 16.4778 13.3233 16.393 13.2856 16.2996C13.2478 16.2062 13.2293 16.1062 13.2311 16.0055C13.2329 15.9048 13.2549 15.8055 13.2959 15.7135C13.3369 15.6215 13.396 15.5387 13.4697 15.47L16.1897 12.75L6.49968 12.75C6.30077 12.75 6.11001 12.671 5.96935 12.5303C5.8287 12.3897 5.74968 12.1989 5.74968 12C5.74968 11.8011 5.8287 11.6103 5.96935 11.4697C6.11001 11.329 6.30077 11.25 6.49968 11.25L16.1897 11.25L13.4697 8.53Z" fill="#FAFAFA"/>
</svg>
