<svg width="24" height="24" viewBox="0 0 24 24" fill="none" xmlns="http://www.w3.org/2000/svg">
<g clip-path="url(#clip0_49_565)">
<path fill-rule="evenodd" clip-rule="evenodd" d="M3.25 1C3.25 0.801088 3.17098 0.610322 3.03033 0.46967C2.88968 0.329018 2.69891 0.25 2.5 0.25C2.30109 0.25 2.11032 0.329018 1.96967 0.46967C1.82902 0.610322 1.75 0.801088 1.75 1V4.65C1.336 4.65 0.953 4.79 0.671 5.071C0.391 5.353 0.25 5.736 0.25 6.15V9.15C0.25 9.564 0.39 9.947 0.671 10.228C0.953 10.51 1.336 10.65 1.75 10.65V13.15C1.75 13.3489 1.82902 13.5397 1.96967 13.6803C2.11032 13.821 2.30109 13.9 2.5 13.9C2.69891 13.9 2.88968 13.821 3.03033 13.6803C3.17098 13.5397 3.25 13.3489 3.25 13.15V10.65C3.664 10.65 4.047 10.51 4.329 10.228C4.609 9.948 4.75 9.564 4.75 9.15V6.15C4.75 5.736 4.61 5.353 4.329 5.071C4.047 4.79 3.664 4.65 3.25 4.65V1ZM7.25 19.75C6.836 19.75 6.453 19.61 6.171 19.329C6.03281 19.186 5.92443 19.017 5.85216 18.8318C5.77988 18.6465 5.74516 18.4488 5.75 18.25V13.75C5.75 13.336 5.89 12.953 6.171 12.671C6.452 12.389 6.836 12.25 7.25 12.25V9.75C7.25 9.55109 7.32902 9.36032 7.46967 9.21967C7.61032 9.07902 7.80109 9 8 9C8.19891 9 8.38968 9.07902 8.53033 9.21967C8.67098 9.36032 8.75 9.55109 8.75 9.75V12.25C9.164 12.25 9.547 12.39 9.829 12.671C10.11 12.953 10.25 13.336 10.25 13.75V18.25C10.25 18.664 10.11 19.047 9.829 19.329C9.547 19.609 9.164 19.75 8.75 19.75V23C8.75 23.1989 8.67098 23.3897 8.53033 23.5303C8.38968 23.671 8.19891 23.75 8 23.75C7.80109 23.75 7.61032 23.671 7.46967 23.5303C7.32902 23.3897 7.25 23.1989 7.25 23V19.75ZM12.972 11.771C13.252 11.491 13.636 11.35 14.05 11.35H15.55C15.964 11.35 16.347 11.49 16.629 11.771C16.91 12.053 17.05 12.436 17.05 12.85V16.85C17.05 17.264 16.91 17.647 16.629 17.929C16.347 18.209 15.964 18.35 15.55 18.35V21.85C15.55 22.0489 15.471 22.2397 15.3303 22.3803C15.1897 22.521 14.9989 22.6 14.8 22.6C14.6011 22.6 14.4103 22.521 14.2697 22.3803C14.129 22.2397 14.05 22.0489 14.05 21.85V18.35C13.636 18.35 13.253 18.21 12.971 17.929C12.8328 17.786 12.7244 17.617 12.6522 17.4318C12.5799 17.2465 12.5452 17.0488 12.55 16.85V12.85C12.55 12.436 12.69 12.053 12.971 11.771M20.825 2.77C20.7546 2.68559 20.6665 2.61769 20.567 2.57109C20.4675 2.52449 20.3589 2.50034 20.249 2.50034C20.1391 2.50034 20.0305 2.52449 19.931 2.57109C19.8315 2.61769 19.7434 2.68559 19.673 2.77L16.673 6.37C16.5818 6.4795 16.5237 6.61272 16.5054 6.75406C16.4872 6.8954 16.5096 7.03901 16.5701 7.16807C16.6305 7.29713 16.7265 7.4063 16.8467 7.4828C16.9669 7.55929 17.1065 7.59995 17.249 7.6H19.249V18.85C19.249 19.1152 19.3544 19.3696 19.5419 19.5571C19.7294 19.7446 19.9838 19.85 20.249 19.85C20.5142 19.85 20.7686 19.7446 20.9561 19.5571C21.1436 19.3696 21.249 19.1152 21.249 18.85V7.6H23.249C23.3915 7.59995 23.5311 7.55929 23.6513 7.4828C23.7715 7.4063 23.8675 7.29713 23.9279 7.16807C23.9884 7.03901 24.0108 6.8954 23.9926 6.75406C23.9743 6.61272 23.9162 6.4795 23.825 6.37L20.825 2.77Z" fill="#AEED09"/>
</g>
<defs>
<clipPath id="clip0_49_565">
<rect width="24" height="24" fill="white"/>
</clipPath>
</defs>
</svg>
