<svg width="30" height="24" viewBox="0 0 30 24" fill="none" xmlns="http://www.w3.org/2000/svg">
<path d="M20.7092 11.2875L15.7092 6.28745C15.6141 6.19641 15.502 6.12505 15.3792 6.07745C15.1357 5.97744 14.8627 5.97744 14.6192 6.07745C14.4965 6.12505 14.3843 6.19641 14.2892 6.28745L9.28921 11.2875C9.19597 11.3807 9.12201 11.4914 9.07155 11.6132C9.02109 11.735 8.99512 11.8656 8.99512 11.9975C8.99512 12.2638 9.10091 12.5192 9.28921 12.7075C9.47751 12.8958 9.73291 13.0015 9.99921 13.0015C10.2655 13.0015 10.5209 12.8958 10.7092 12.7075L13.9992 9.40745V16.9975C13.9992 17.2627 14.1046 17.517 14.2921 17.7046C14.4796 17.8921 14.734 17.9975 14.9992 17.9975C15.2644 17.9975 15.5188 17.8921 15.7063 17.7046C15.8939 17.517 15.9992 17.2627 15.9992 16.9975V9.40745L19.2892 12.7075C19.3822 12.8012 19.4928 12.8756 19.6146 12.9263C19.7365 12.9771 19.8672 13.0033 19.9992 13.0033C20.1312 13.0033 20.2619 12.9771 20.3838 12.9263C20.5056 12.8756 20.6162 12.8012 20.7092 12.7075C20.8029 12.6145 20.8773 12.5039 20.9281 12.382C20.9789 12.2602 21.005 12.1295 21.005 11.9975C21.005 11.8654 20.9789 11.7347 20.9281 11.6129C20.8773 11.491 20.8029 11.3804 20.7092 11.2875Z" fill="#AEED09"/>
</svg>
